<svg width="20" height="20" viewBox="0 0 20 20" fill="none" xmlns="http://www.w3.org/2000/svg">
<path d="M10 1C14.9706 1 19 5.02944 19 10C19 14.9706 14.9706 19 10 19C5.02944 19 1 14.9706 1 10C1 5.02944 5.02944 1 10 1ZM15.8535 6.14648C15.6583 5.95122 15.3417 5.95122 15.1465 6.14648L8.5 12.793L5.35352 9.64648C5.15825 9.45122 4.84175 9.45122 4.64648 9.64648C4.45122 9.84175 4.45122 10.1583 4.64648 10.3535L8.14648 13.8535C8.34175 14.0488 8.65825 14.0488 8.85352 13.8535L15.8535 6.85352C16.0488 6.65825 16.0488 6.34175 15.8535 6.14648Z" fill="#006BD8"/>
</svg>
